<?xml version="1.0" encoding="utf-8"?>
<svg xmlns="http://www.w3.org/2000/svg" viewBox="0 0 500 200">
  <g fill="none" fill-rule="evenodd" transform="matrix(2.413457, 0, 0, 2.380921, 74.577454, 51.883514)" style="">
    <path fill="#23E6A8" d="M11.842 21 1.621 10.094a5.98 5.98 0 0 1 .267-8.455l.026-.025a6.044 6.044 0 0 1 8.516.291l14.058 15.002a5.983 5.983 0 0 1 0 8.187l-14.058 15a6.044 6.044 0 0 1-8.516.292 5.98 5.98 0 0 1-.293-8.48z"/>
    <path fill="#23E6A8" fill-opacity="0.4" d="m29.59 21 10.223-10.906a5.98 5.98 0 0 0-.268-8.455l-.026-.025a6.044 6.044 0 0 0-8.517.291L16.945 16.907a5.98 5.98 0 0 0 0 8.187l14.057 15a6.044 6.044 0 0 0 8.517.292 5.98 5.98 0 0 0 .317-8.453l-.023-.027z"/>
  </g>
  <title>ModelContextProtocol</title>
  <title>ModelContextProtocol</title>
  <path d="M 394.214 61.891 C 389.648 57.817 382.374 57.817 377.806 61.891 L 334.05 101.225 C 332.528 102.578 330.106 102.578 328.584 101.225 C 327.074 99.881 327.074 97.654 328.584 96.309 L 372.339 56.975 C 379.947 50.184 392.073 50.184 399.683 56.975 C 403.978 60.804 406.017 66.289 405.155 71.725 C 411.162 70.941 417.219 72.757 421.56 76.641 L 421.789 76.849 C 429.338 83.583 429.338 94.7 421.789 101.433 L 382.215 137.003 C 381.71 137.45 381.71 138.192 382.215 138.642 L 390.341 145.949 C 391.851 147.295 391.851 149.521 390.341 150.867 C 388.819 152.22 386.399 152.22 384.872 150.867 L 376.746 143.562 C 373.219 140.42 373.219 135.229 376.746 132.089 L 416.32 96.513 C 420.847 92.47 420.847 85.804 416.32 81.763 L 416.093 81.559 C 411.527 77.489 404.263 77.485 399.697 81.546 L 367.095 110.856 L 367.088 110.864 L 366.643 111.268 C 365.121 112.625 362.691 112.625 361.169 111.268 C 359.662 109.921 359.662 107.696 361.169 106.349 L 394.231 76.63 C 398.741 72.587 398.738 65.924 394.214 61.891 Z" style=""/>
  <path d="M 388.745 71.725 C 390.254 70.379 390.254 68.154 388.745 66.809 C 387.223 65.45 384.797 65.45 383.273 66.809 L 350.915 95.902 C 343.363 102.634 343.363 113.75 350.915 120.484 C 358.529 127.271 370.648 127.271 378.26 120.484 L 410.624 91.391 C 412.134 90.045 412.134 87.822 410.624 86.475 C 409.102 85.116 406.676 85.116 405.152 86.475 L 372.791 115.566 C 368.223 119.642 360.952 119.642 356.381 115.566 C 351.854 111.524 351.854 104.859 356.381 100.816 L 388.745 71.725 Z" style=""/>
  <g id="Capa_1" transform="matrix(1.247186, 0, 0, 1.247186, -195.464188, -247.91124)" style="" fill="#473D85">
    <g transform="matrix(1, 0, 0, 1, 334.714996, 256.470764)">
      <path d="M41.267,18.557H26.832V4.134C26.832,1.851,24.99,0,22.707,0c-2.283,0-4.124,1.851-4.124,4.135v14.432H4.141 c-2.283,0-4.139,1.851-4.138,4.135c-0.001,1.141,0.46,2.187,1.207,2.934c0.748,0.749,1.78,1.222,2.92,1.222h14.453V41.27 c0,1.142,0.453,2.176,1.201,2.922c0.748,0.748,1.777,1.211,2.919,1.211c2.282,0,4.129-1.851,4.129-4.133V26.857h14.435 c2.283,0,4.134-1.867,4.133-4.15C45.399,20.425,43.548,18.557,41.267,18.557z"/>
    </g>
  </g>
</svg>