<?xml version="1.0" encoding="UTF-8" standalone="no"?>
<!-- Created with Inkscape (http://www.inkscape.org/) -->

<svg
   width="200mm"
   height="200mm"
   viewBox="0 0 200 200"
   version="1.1"
   id="svg1"
   inkscape:version="1.4 (e7c3feb100, 2024-10-09)"
   sodipodi:docname="blackwall_logo.svg"
   xml:space="preserve"
   xmlns:inkscape="http://www.inkscape.org/namespaces/inkscape"
   xmlns:sodipodi="http://sodipodi.sourceforge.net/DTD/sodipodi-0.dtd"
   xmlns:xlink="http://www.w3.org/1999/xlink"
   xmlns="http://www.w3.org/2000/svg"
   xmlns:svg="http://www.w3.org/2000/svg"><sodipodi:namedview
     id="namedview1"
     pagecolor="#ffffff"
     bordercolor="#000000"
     borderopacity="0.25"
     inkscape:showpageshadow="2"
     inkscape:pageopacity="0.0"
     inkscape:pagecheckerboard="0"
     inkscape:deskcolor="#d1d1d1"
     inkscape:document-units="mm"
     inkscape:zoom="0.99597362"
     inkscape:cx="216.87321"
     inkscape:cy="142.57406"
     inkscape:window-width="3440"
     inkscape:window-height="1371"
     inkscape:window-x="0"
     inkscape:window-y="0"
     inkscape:window-maximized="1"
     inkscape:current-layer="layer1" /><defs
     id="defs1"><clipPath
       clipPathUnits="userSpaceOnUse"
       id="clipPath33"><rect
         style="fill:#000000;stroke:none;stroke-width:0.999995;stroke-linecap:butt;stroke-linejoin:bevel;paint-order:stroke markers fill;stop-color:#000000"
         id="rect33"
         width="46.19186"
         height="80.006783"
         x="74.999985"
         y="399.99661" /></clipPath><pattern
       inkscape:collect="always"
       patternUnits="userSpaceOnUse"
       width="2.5"
       height="1"
       patternTransform="translate(0,0) scale(2,2)"
       preserveAspectRatio="xMidYMid"
       id="Strips1_1.5-7"
       style="fill:#000000"
       inkscape:stockid="Stripes 02 (2:3)"
       inkscape:isstock="true"
       inkscape:label="Stripes 02 (2:3)"><rect
         style="stroke:none"
         x="0"
         y="-0.5"
         width="1"
         height="2"
         id="rect140-1" /></pattern><pattern
       inkscape:collect="always"
       xlink:href="#Strips1_1.5-7"
       preserveAspectRatio="xMidYMid"
       id="pattern1"
       patternTransform="rotate(90,-4.5161002,-7.9695886)"
       x="0"
       y="0" /><rect
       x="41.37931"
       y="258.62069"
       width="309.48276"
       height="74.137931"
       id="rect8-9" /></defs><g
     inkscape:label="Layer 1"
     inkscape:groupmode="layer"
     id="layer1"><path
       id="path3"
       style="opacity:1;fill:none;fill-opacity:1;stroke:#a11616;stroke-width:4;stroke-dasharray:none;stroke-opacity:1"
       inkscape:transform-center-x="-2.4424926e-06"
       inkscape:transform-center-y="-21.650635"
       d="m 67.187507,69.5733 4.687494,-8.118988 4.687504,-8.118988 4.687504,-8.118988 4.687494,-8.118988 4.687505,-8.118989 4.687493,-8.118988 h 9.375009 l 4.68749,8.118988 4.68751,8.118989 4.68749,8.118988 4.68751,8.118988 4.68749,8.118988 4.6875,8.118988 L 100,77.692288 Z m 84.374993,32.47595 4.6875,8.119 4.6875,8.11898 4.6875,8.11899 4.6875,8.11899 -4.6875,8.11899 H 156.25 146.875 137.5 128.125 118.75 109.375 99.999995 90.624997 81.249999 71.875001 62.499999 53.125 43.75 34.375 l -4.6875,-8.11899 4.687501,-8.11899 4.6875,-8.11899 4.6875,-8.11898 4.6875,-8.119 L 100,115 Z"
       sodipodi:nodetypes="ccccccccccccccccccccccccccccccccccccccccccc"
       inkscape:label="Triangle"
       sodipodi:insensitive="true" /><text
       xml:space="preserve"
       style="font-style:normal;font-variant:normal;font-weight:bold;font-stretch:normal;font-size:25.4px;font-family:Corbel;-inkscape-font-specification:'Corbel Bold';text-align:start;writing-mode:lr-tb;direction:ltr;text-anchor:start;opacity:1;fill:#000000;fill-opacity:1;stroke:none;stroke-width:1.2;stroke-dasharray:none;stroke-dashoffset:0"
       x="29.35708"
       y="167.36137"
       id="text3"
       inkscape:label="Blackwall"><tspan
         sodipodi:role="line"
         id="tspan3"
         style="font-style:normal;font-variant:normal;font-weight:800;font-stretch:normal;font-family:Orbitron;-inkscape-font-specification:'Orbitron Ultra-Bold';stroke-width:1.2"
         x="29.35708"
         y="167.36137">blackwall</tspan></text><text
       xml:space="preserve"
       style="font-style:normal;font-variant:normal;font-weight:bold;font-stretch:normal;font-size:12.7px;font-family:Corbel;-inkscape-font-specification:'Corbel Bold';text-align:start;writing-mode:lr-tb;direction:ltr;text-anchor:start;fill:#000000;fill-opacity:1;stroke:none;stroke-width:1.2;stroke-dasharray:none;stroke-dashoffset:0"
       x="30.505806"
       y="180.37625"
       id="text3-3"
       inkscape:label="Security"><tspan
         sodipodi:role="line"
         id="tspan3-0"
         style="font-style:normal;font-variant:normal;font-weight:800;font-stretch:normal;font-size:12.7px;font-family:Orbitron;-inkscape-font-specification:'Orbitron Ultra-Bold';stroke-width:1.2"
         x="30.505806"
         y="180.37625">mainframe security</tspan></text><rect
       style="fill:none;fill-opacity:1;stroke:#000000;stroke-width:1.5;stroke-dasharray:none;stroke-opacity:1"
       id="rect8"
       width="14.842982"
       height="14.311676"
       x="92.578506"
       y="50.358025"
       rx="0.39264458"
       ry="0.37858984" /><path
       id="path8"
       style="fill:none;stroke:#000000;stroke-width:1.5;stroke-dasharray:none;stroke-opacity:1"
       d="m 105.06324,50.357959 c -1.27182,0.0023 -10.102731,0 -10.102731,0 l -0.02727,-4.322391 c -0.006,-0.947875 0.137286,-1.759568 0.42169,-2.482472 0.284404,-0.722904 0.689113,-1.356653 1.170584,-1.880362 0.481471,-0.523708 1.039703,-0.937376 1.631154,-1.220116 0.591449,-0.282741 1.216119,-0.434554 1.83046,-0.434554 0.614343,0 1.239213,0.151137 1.830913,0.433031 0.5917,0.281895 1.15024,0.694547 1.63191,1.217579 0.48168,0.523031 0.88649,1.156442 1.17074,1.879854 0.28425,0.723412 0.45432,1.53686 0.44596,2.453442 -0.009,1.001277 4.5e-4,2.839223 -0.003,4.355989 z"
       sodipodi:nodetypes="ccsssscssssc" /><path
       id="rect1"
       style="fill:none;stroke:#000000;stroke-width:0.542093;stroke-dasharray:none"
       d="m 100.74694,61.034409 c -1.8e-4,0.458111 -0.24048,0.826914 -0.53919,0.826914 h -0.415573 c -0.298713,0 -0.539024,-0.368803 -0.539194,-0.826914 L 99.251783,57.8 c -0.255054,-0.128333 -0.441991,-0.259032 -0.613254,-0.404034 -0.190341,-0.161155 -0.315201,-0.39097 -0.412632,-0.626941 -0.09743,-0.235971 -0.151308,-0.495408 -0.151308,-0.767736 0,-1.089311 0.862036,-1.972372 1.925411,-1.972372 1.06337,-3e-6 1.92541,0.883059 1.92541,1.972372 0,0.272328 -0.0539,0.531766 -0.15131,0.767738 -0.0974,0.235971 -0.23842,0.448477 -0.41263,0.626942 -0.17422,0.178465 -0.41688,0.323355 -0.61325,0.404031 z"
       sodipodi:nodetypes="sssscssssssscs" /></g></svg>
