<svg xmlns="http://www.w3.org/2000/svg" xmlns:xlink="http://www.w3.org/1999/xlink" width="138" height="138" viewBox="-5 -5 138 138"><circle cx="64" cy="64" r="32" fill="#ffffff" stroke="none"/><path d="M 96,64 A 32 32 0 0 0 64,32 V 0 A 64 64 0 0 1 128,64 Z" fill="#4c6cb3" stroke="#ffffff" stroke-width="10" /><path d="M 41.4,86.6 A 32 32 0 0 0 96,64 H 128 A 64 64 0 0 1 18.7,109.3 Z" fill="#f8e58c" stroke="#ffffff" stroke-width="10" /><path d="M 18.7,109.3 A 64 64 0 0 1 64,0 V 32 A 32 32 0 0 0 41.4,86.6 Z" fill="#f8e58c" stroke="#ffffff" stroke-width="10" /><path d="M 51,39 h 19 a 15 15 0 0 1 0,30 h -12 v 20 h -7 Z m 7,23 h 12 a 8 8 0 0 0 0,-16 h -12 Z" fill="#000000" stroke="none" /></svg>