<?xml version="1.0" encoding="UTF-8" standalone="no"?>
<svg
   width="943.20001pt"
   height="853.20001pt"
   viewBox="0 0 943.20001 853.20001"
   version="1.1"
   id="svg28"
   sodipodi:docname="logo_sysbench.svg"
   inkscape:version="1.4 (e7c3feb1, 2024-10-09)"
   inkscape:export-filename="logo_sysbench.pdf"
   inkscape:export-xdpi="96"
   inkscape:export-ydpi="96"
   xmlns:inkscape="http://www.inkscape.org/namespaces/inkscape"
   xmlns:sodipodi="http://sodipodi.sourceforge.net/DTD/sodipodi-0.dtd"
   xmlns="http://www.w3.org/2000/svg"
   xmlns:svg="http://www.w3.org/2000/svg">
  <defs
     id="defs28" />
  <sodipodi:namedview
     id="namedview28"
     pagecolor="#ffffff"
     bordercolor="#000000"
     borderopacity="0.25"
     inkscape:showpageshadow="2"
     inkscape:pageopacity="0.0"
     inkscape:pagecheckerboard="true"
     inkscape:deskcolor="#d1d1d1"
     inkscape:document-units="pt"
     showgrid="false"
     inkscape:zoom="0.79973049"
     inkscape:cx="679.60395"
     inkscape:cy="655.84595"
     inkscape:window-width="1712"
     inkscape:window-height="1412"
     inkscape:window-x="854"
     inkscape:window-y="0"
     inkscape:window-maximized="0"
     inkscape:current-layer="svg28" />
  <path
     fill-rule="nonzero"
     fill="#cb500b"
     fill-opacity="1"
     d="m 621.6,76.361717 c 50.98047,0.07813 102.01953,0.148437 153.01172,0 8.92969,0.207031 18.23828,3.679687 24.35937,10.359375 6.00782,6.027344 8.66797,15.160158 9.98047,23.347658 3.53906,18.67969 7.29688,37.32031 10.75,56.03125 3.61719,19.94141 7.8086,39.80078 11.22656,59.78125 -8.41796,-0.39063 -16.88671,-0.10938 -25.32812,-0.15234 -7.64844,0.0312 -15.37109,-0.19922 -23,0.26953 -10.92969,0.64062 -21.30078,6.96093 -26.41016,16.72265 -4.14062,7.75 -4.55078,15.50782 -6.16015,23.89844 -1.21875,6.01172 -3.67969,11.46094 -8.8711,15.03125 -4.33984,2.96875 -10.44922,3.37109 -15.55859,3.37109 -23.66016,0.0977 -47.33984,0 -71,0.0781 -6.25,-0.14063 -12.5,-1.23828 -16.80078,-6.19141 -4.89844,-5.23828 -4.89063,-14.14843 -6.21875,-20.83984 -1.6211,-10.41797 -6.62891,-20.42969 -15.3711,-26.61719 -6.82031,-4.74219 -16.55078,-5.58203 -24.60937,-5.62109 -12.73828,-0.0391 -25.48047,-0.19141 -38.21875,-0.10156 7.02734,-38.26953 14.79687,-76.41797 22.14844,-114.64063 1.1289,-5.46875 2.21093,-11.44922 4.5,-16.566407 3.53906,-7.832031 10.4414,-13.832031 18.6289,-16.363281 7.6211,-2.527314 15.0625,-1.699189 22.94141,-1.796845 z m 0,0"
     id="path1" />
  <path
     fill-rule="nonzero"
     fill="#f3881c"
     fill-opacity="1"
     d="m 308.58828,107.24062 c 17.74219,1.67969 35.86328,5.53907 52.26172,12.60938 8.89062,4.10937 17.91016,8.55078 26.07031,13.96094 16.07813,10.48046 30.32031,23.82031 41.87891,39.1289 10.42187,13.76172 19.22265,28.55078 25.1914,44.78907 7.6211,19.92187 11.16797,41.05078 10.62891,62.37109 -0.84766,25.91016 -8.44141,51.44922 -22.89844,73.05859 -10.94922,16.66016 -25.99218,30.44141 -44.08203,38.98047 -2.27734,0.94922 -4.69922,1.65235 -7.05859,2.3711 3.4414,-2.69141 6.75,-5.48829 9.53125,-8.87891 12.69922,-15.08984 22.16015,-33.23047 26.4375,-52.53125 2.33984,-11.33984 3.67969,-23.28125 2.46094,-34.83984 -2.39063,-34.10938 -18.0586,-67.48047 -40.71875,-92.83985 -13.76954,-14.64062 -30.3125,-27.12109 -48.72266,-35.30078 -12.03906,-5.75 -24.83984,-8.94922 -37.95703,-11.12891 -30.30078,-4.15234 -61.52344,-0.0508 -89.36328,12.75001 -13.59766,5.87109 -25.64844,14.01953 -37.52735,22.75 -6.67187,-8.76954 -15.01953,-15.35938 -22.63281,-23.25 7.79297,-8.66016 16.97266,-16.33204 26.19141,-23.42969 23.24219,-17.48047 49.73047,-30.8125 78.32031,-36.76172 17.01172,-4.09766 34.57031,-5.14844 51.98828,-3.8086 z m 0,0"
     id="path2" />
  <path
     fill-rule="nonzero"
     fill="#f3881c"
     fill-opacity="1"
     d="m 667.58828,114.08828 c 15.66016,-0.0195 31.35156,0.0625 47.01172,-0.0273 2.51172,0.10937 5.39062,-0.19141 7.39844,1.64062 2.03125,1.54688 1.55078,4.11719 1.75,6.39844 0.0312,12.67188 -0.10938,25.32813 -0.0274,38 0.12891,5 -0.67968,9.42969 1.64844,14.07813 6.74219,-0.008 13.48047,0.043 20.23047,-0.0898 3.03906,0.0312 6.32031,-0.1289 9.28125,0.64063 2.33984,0.60937 3.92969,2.91015 3.70703,5.3125 -0.64844,2.23047 -2.63672,4.17968 -4.21875,5.82812 -13,12.66016 -25.75,25.58203 -38.71094,38.28906 -6.34765,6.28125 -12.36718,13.01953 -19.02734,18.97266 -1.76172,1.41016 -3.60156,3.26953 -6.04297,3.08984 -2.20703,0.0781 -3.6875,-1.54297 -5.22656,-2.87109 -18.6211,-18.71094 -37.60156,-37.08984 -56.19141,-55.82812 -1.55078,-1.63282 -3.53125,-3.51172 -4.24219,-5.70313 -0.42968,-1.96875 0.14063,-4.41797 1.4336,-5.96875 1.52734,-1.51953 4.21875,-1.53906 6.22656,-1.66016 8.97266,-0.1289 17.88281,0.51172 26.85156,-0.21093 0.35938,-14.61719 0.0391,-29.25781 0.14844,-43.87891 0.082,-3.85156 -0.35937,-7.91015 0.36328,-11.6914 1.21875,-3.29688 4.34766,-4.38672 7.63672,-4.32032 z m 0,0"
     id="path3" />
  <path
     fill-rule="nonzero"
     fill="#cb500b"
     fill-opacity="1"
     d="m 272.6,173.90859 c 29.35937,-0.98046 58.69141,8.63282 82.48828,25.69141 29.35156,20.67187 51.43359,52.55859 59.23047,87.69922 2.85156,14.55078 4.08984,28.96094 1.05078,43.60937 -3.84766,20.32032 -14.39062,39.28125 -29.80859,53.08985 -7.94141,7.55078 -17.30078,12.55078 -27.35938,16.6914 -4.58203,1.85938 -9.39062,2.5586 -14.3125,2.76953 15.85938,-12.71093 28.33985,-29.1289 34.26172,-48.75 5.50781,-17.28906 4.57813,-36.6875 -1.35937,-53.75 -6.8125,-20.83984 -20.13282,-39.23828 -37.63282,-52.41015 -21.07812,-15.66016 -48.32031,-24.46094 -74.58984,-20.32031 -12.1875,1.9414 -23.98047,5.14062 -34.98828,10.83984 -16.17969,8.38281 -31.41016,19.97266 -42.71094,34.35156 -13.57813,15.91016 -23.66016,34.92969 -30.12109,54.78906 -7.28907,22.49219 -10.14844,46.35157 -8.02735,69.92188 2.42969,22.92969 7.82031,45.36719 17.48828,66.35937 10.25,22.92969 24.21094,44.28907 41.19141,62.8086 6.33984,6.6289 12.77734,13.26172 19.75,19.24219 22.51953,19.88671 48.91797,34.77734 77.16797,44.86718 9.87109,3.26953 19.96094,5.94141 30.15234,8.01953 -3.58984,0.8711 -6.71093,0.71094 -10.3125,0.1211 -0.35937,1.48047 -0.70703,2.96094 -1.07031,4.4414 -5.13672,1.08985 -9.96875,-0.0898 -15.13672,0.0781 4.38672,2.21094 9.13672,2.92969 13.72656,4.58984 l -1.55859,0.97266 c -22.21094,-5.83203 -43.87109,-14 -64.91016,-23.13281 -19.19921,-8.91797 -37.64062,-19.72657 -54.6289,-32.36719 -31.03125,-22.88281 -58.17188,-53 -75.35157,-87.66016 -9.59765,-19.60934 -15.96875,-40.67184 -18.61718,-62.35153 -0.78125,-8.25781 -2.11328,-16.73047 -2.01172,-25.01953 0.0117,-7.35938 -0.21875,-14.67188 0.58984,-22.01172 1.62891,-28.06641 9,-55.72656 21.48047,-80.91797 7.66016,-15.05859 17.03906,-29.1289 28.12109,-41.8789 11.86719,-14.23047 25.98048,-26.38282 41.48048,-36.49219 6.58984,-3.91016 13.38671,-7.48047 20.34765,-10.67969 17.62891,-7.8789 36.69141,-12.42969 55.98047,-13.21094 z m 0,0"
     id="path4" />
  <path
     fill-rule="nonzero"
     fill="#f3881c"
     fill-opacity="1"
     d="m 142.45156,180.63125 c 8.05859,6.83984 15.5,14.23047 23.11719,21.53906 -3.75781,4.53125 -8.09766,8.5 -11.96875,12.92969 -8.21875,9.12109 -15.48828,19.12109 -22.23047,29.37109 -7.44922,-5.10937 -15.44922,-9.42187 -22.83984,-14.58203 0.85156,-2.77734 2.42968,-5.48047 3.8789,-7.98828 6.15235,-10.8125 13.49219,-21.03125 21.14063,-30.83203 2.8125,-3.64844 5.51953,-7.27734 8.90234,-10.4375 z m 0,0"
     id="path5" />
  <path
     fill-rule="nonzero"
     fill="#e96f18"
     fill-opacity="1"
     d="m 103.1,240.27969 c 7.89062,3.8789 15.55859,8.46875 22.83984,13.42187 -8.98047,14.87891 -14.89062,30.61719 -20.60937,46.9375 -6.851566,-2.98828 -13.91016,-5.55078 -20.968753,-8.00781 C 89.279686,274.90078 94.810936,256.74844 103.1,240.27969 Z m 0,0"
     id="path6" />
  <path
     id="path7"
     d="M 786.60059 244.0415 C 782.51075 243.88134 778.56933 245.27245 775.5498 248.04199 C 771.90136 251.45995 770.93945 256.6001 769.99805 261.27979 C 768.81836 268.01026 768.04932 274.58106 765.42041 280.95996 C 762.92822 287.38965 758.49121 292.45166 753.20215 296.74072 C 745.74903 302.43994 736.83789 304.38916 727.59961 304.45166 C 705.61133 304.68989 683.59961 304.49022 661.59961 304.54102 C 652.93945 304.50977 643.1787 304.35059 635.22949 300.47168 C 628.63183 297.11231 622.83057 291.88867 619.45166 285.22852 C 615.54151 277.81055 614.58886 269.04932 613.01074 260.92822 C 612.03027 256.40088 610.45996 250.99805 606.6709 247.99805 C 602.26075 244.63867 596.9795 244.06934 591.60059 244.06934 C 576.58887 244.13184 561.58887 244.06935 546.58887 244.08105 L 546.5874 244.08105 C 540.02881 243.97949 533.22119 248.18945 530.86963 254.4082 C 529.26026 258.93945 529.49775 264.33887 529.48975 269.10059 C 529.48975 306.10059 529.49054 343.10059 529.49854 380.10059 C 529.49072 385.12012 529.93945 389.97852 532.06055 394.59961 C 536.67773 405.15039 548.18945 411.79981 559.59961 411.27246 C 646.58789 411.20196 733.61133 411.27977 820.59961 411.20947 C 829.88867 411.27979 838.90137 408.86182 845.42871 401.93994 C 851.36231 395.61963 853.06935 387.52197 853.13965 379.1001 C 853.45215 341.43994 853.11133 303.77246 853.38867 266.10059 C 853.36914 260.51075 852.86963 254.97852 849.33838 250.40039 C 845.68994 245.91992 840.22901 244.1899 834.61963 244.1001 C 818.61182 244.0688 802.61231 244.1001 786.60059 244.0415 z M 726.60059 345.70898 C 729.87012 345.81055 732.83106 345.84961 735.13184 348.50977 C 737.56934 351.99023 737.8623 357.02246 736.3623 360.94043 C 735.2412 364.20996 732.09961 366.61962 728.61914 366.76025 C 722.63086 367.06103 716.6001 366.72907 710.6001 366.83057 C 692.6001 366.93994 674.6001 366.74813 656.6001 366.86133 C 654.45166 366.83013 652.18945 366.88863 650.08008 366.43945 C 647.18945 365.7207 645.22852 362.95215 644.68945 360.13184 C 643.97852 356.06934 643.61133 351.33008 646.6582 348.08789 C 648.81836 345.70898 651.63965 345.90087 654.60059 345.76025 C 678.60059 345.68995 702.60059 345.79098 726.60059 345.70898 z "
     style="fill:#cb500b;fill-opacity:1" />
  <path
     fill-rule="nonzero"
     fill="#e96f18"
     fill-opacity="1"
     d="m 273.61172,246.17812 c 4.08984,-0.3164 8.1289,0.0625 12.1875,0.58204 13.72265,1.25 27.26172,7 38.8125,14.33984 16.1875,10.89062 29.94922,26.92969 36.55859,45.42969 6.08985,15.98047 7.35938,34.17187 2.60938,50.67968 -3.25,11.17188 -8.21094,21.85157 -16.57813,30.14063 3.03906,-9.96094 4.03906,-20.39844 2.6875,-30.73828 -1.64062,-10.49219 -5.46875,-20.72266 -11.05859,-29.74219 -7.78906,-12.55859 -20.28906,-22.00781 -34.17188,-26.85937 -14.25781,-4.07032 -31.03906,-3.5 -44.1289,3.98828 -13.42969,7.07031 -23.23047,18.5 -30.3086,31.73047 -12.54297,22.82031 -15.85937,50.83203 -12.41015,76.37109 3.32031,29.35156 15.91015,57.32812 34.98828,79.80859 9.3125,11.49219 21.26172,21.22266 33.41015,29.57032 29.40235,19.25 65.42188,28 100.39063,25.71093 13.96094,-0.69922 28.03125,-3.89843 41.46875,-7.62109 10.63281,-2.92969 20.5,-7.39844 30.87109,-11.07813 1.05078,3.57813 2.21094,7.09766 3.78907,10.48829 4.19921,8.87109 7.8125,17.98046 12.21093,26.76171 -9.76172,3.6211 -19.76172,6.57032 -29.55078,10.10938 -19.8789,6.53125 -40.85937,11.46094 -61.76953,12.80078 -25.5,1.80078 -50.84766,-2.22266 -74.91797,-10.66016 -12.40234,-4.92968 -24.64062,-9.98046 -36.0625,-16.96093 -28.41015,-16.10938 -53.4375,-37.89063 -72.48047,-64.48047 C 177.90078,466.33047 164.33828,429.65078 162.63125,392.1 c -1.19141,-30.14063 5.09765,-61.89063 21.34766,-87.62891 14.64062,-24.33984 37.90234,-45 65.16015,-53.82031 7.94922,-2.85156 16.08985,-3.82031 24.47266,-4.47266 z m 0,0"
     id="path8" />
  <path
     fill-rule="nonzero"
     fill="#e96f18"
     fill-opacity="1"
     d="m 83.330467,305.40078 c 6.621093,1.64844 13.191406,3.60938 19.781253,5.41797 -4.171878,14.12109 -6.382816,28.62109 -7.433597,43.28125 -0.167969,10.12109 -0.988281,20.17969 -0.527344,30.30859 -0.992187,-7.1875 -0.171875,-14.36718 -1,-21.57031 -0.660156,8.38281 -0.972656,16.86328 -0.519531,25.26172 0.546875,6.35156 0.847656,12.69141 0.640625,19.07031 -1.832031,-4.89062 -2.0625,-10.05859 -3.671875,-15 -2.769531,-8.85156 -4.589844,-17.92187 -5.300781,-27.17969 -0.5,0.69922 -1,1.39844 -1.488281,2.09766 -0.429688,-3.79687 -0.929688,-7.60937 -1.082032,-11.42969 1.550782,-6.57812 0.699219,-12.88672 0.859375,-19.55859 -0.1875,-6.71875 0.75,-12.94922 -0.898437,-19.55078 -0.01953,-3.71875 0.140625,-7.46875 0.640625,-11.14844 z m 0,0"
     id="path9" />
  <path
     fill-rule="nonzero"
     fill="#e96f18"
     fill-opacity="1"
     d="m 82.689842,316.54922 c 1.648437,6.60156 0.710937,12.83203 0.898437,19.55078 -0.160156,6.67187 0.691407,12.98047 -0.859375,19.55859 -0.808594,-13.08984 -0.839844,-26.02734 -0.03906,-39.10937 z m 0,0"
     id="path10" />
  <path
     fill-rule="nonzero"
     fill="#cb500b"
     fill-opacity="1"
     d="m 94.150779,362.83828 c 0.828125,7.20313 0.0078,14.38281 1,21.57031 0.558594,6.57032 0.359375,13.14063 1.148438,19.69141 0.449219,5.85937 1.429687,11.64844 2.039062,17.5 -7.867187,-17.01953 -12.1875,-35.96875 -14.527343,-54.51172 0.488281,-0.69922 0.988281,-1.39844 1.488281,-2.09766 0.710937,9.25782 2.53125,18.32813 5.300781,27.17969 1.609375,4.94141 1.839844,10.10938 3.671875,15 0.207031,-6.3789 -0.09375,-12.71875 -0.640625,-19.07031 -0.453125,-8.39844 -0.140625,-16.87891 0.519531,-25.26172 z m 0,0"
     id="path12" />
  <path
     fill-rule="nonzero"
     fill="#f3881c"
     fill-opacity="1"
     d="m 231.54922,376.95937 c 2.07031,5.96875 3.82031,12 6.39062,17.80079 7.46094,17.60937 18.78125,33.23828 32.48047,46.53125 9.03906,7.98046 18.85938,15.83984 29.62891,21.34765 3.53125,1.83203 7.5,3.26172 10.74219,5.55078 0.0469,2.33985 -1.24219,4.8086 -2.16016,6.92969 -5.40234,11.55859 -10.23047,23.37891 -15.45313,35.03125 -5.60937,-4.74219 -12,-8.3125 -17.51953,-13.14062 -12.75,-10.60938 -23.16015,-24.23829 -31.28906,-38.62891 C 233.85,439.6 227.97109,417.65859 228.54141,396.1 c 0.33984,-6.37109 0.8789,-13.10156 3.00781,-19.14063 z m 0,0"
     id="path13" />
  <path
     fill-rule="nonzero"
     fill="#f3881c"
     fill-opacity="1"
     d="m 583.6,440.22891 c 40.39062,-0.80079 80.62109,0.66015 121,0.71093 34.98828,0.0899 70.03125,0.35157 105,-0.78125 10.42187,-0.0703 20.85937,-0.5 31.28125,-0.13672 -22.62109,26.81641 -48.24219,50.86719 -75.89063,72.42969 -1.74218,1.28906 -3.55078,2.6875 -5.55078,3.54688 -2.83984,0.10156 -5.87109,-1.5 -8.6289,-2.1875 -23.42969,-6.8711 -47.41016,-12.01172 -71.44141,-16.3125 -19.10937,-3.5586 -38.37891,-6.07032 -57.76953,-7.4375 -17.89844,-1.24219 -36.07031,-2.07032 -54,-1.03907 -8.05859,-0.0937 -16,0.70704 -24,1.52735 -27.46875,2.71094 -54.26172,10.51172 -79.78906,20.78125 -9.65235,3.76953 -19.24219,7.75781 -29.01172,11.1914 -2.32031,-8.16015 -6.05078,-15.49218 -9.1211,-23.54296 -2.76953,-6.51954 -5.6875,-12.96875 -8.5,-19.46875 6.25,-2.46875 12.99219,-3.26172 19.33204,-5.53907 14.10156,-3.98047 27.16015,-10.42187 41.05078,-14.94922 22.17968,-8.13281 45.36718,-13.64062 68.85937,-16.22265 12.37891,-1.5 24.76953,-1.66016 37.17969,-2.57031 z m 0,0"
     id="path14" />
  <path
     fill-rule="nonzero"
     fill="#f3881c"
     fill-opacity="1"
     d="m 315.79922,470.90859 c 5.15234,1.13282 10.03125,3.39063 15.1289,4.80078 12.30079,4.08985 25.80079,5.71875 38.6836,6.94141 14.39844,1.44922 28.16015,-0.53906 42.36719,-2.42969 2.5625,8.85938 6.49218,17.02735 9.99218,25.51953 2.75782,6.03907 5.10938,12.25 7.91797,18.26954 -25.5,8.4414 -52.71094,10.69921 -79.28906,7.08984 -17.94141,-2.48047 -35.07031,-8.26953 -51.19922,-16.42188 5.46875,-14.6289 11.12109,-29.0664 16.39844,-43.76953 z m 0,0"
     id="path15" />
  <path
     fill-rule="nonzero"
     fill="#f3881c"
     fill-opacity="1"
     d="m 563.58047,503.77969 c 14.1914,-1.17969 27.84765,-0.0703 42.01953,0.44922 10.08984,0.97265 20.14844,1.66015 30.17187,3.3125 35.65625,4.41015 71.41797,13.14843 106.02735,22.75781 -3.80078,2.17969 -7.50781,4.4414 -11.1875,6.82031 -25.75,15.76172 -52.40235,30.85938 -80.02344,43.10156 -9.64844,-3.44922 -19.10937,-7.3125 -28.98828,-10.08984 -14.37891,-4.79297 -29.10938,-8.17188 -43.98047,-11.01953 -25.46875,-4.40235 -51.55859,-4.58203 -76.98828,0.16797 -7.10938,1.71875 -14.26172,2.8789 -21.23047,5.14843 -3.39062,-7.5664 -6.83984,-15.08984 -10.67187,-22.45703 -2.19922,-5.14062 -4.85938,-9.65234 -8.07032,-14.22265 14.03125,-6.13672 28.69141,-10.9375 43.42969,-15.04688 19.44141,-4.76172 39.47266,-8.24219 59.49219,-8.92187 z m 0,0"
     id="path16" />
  <path
     fill-rule="nonzero"
     fill="#f3881c"
     fill-opacity="1"
     d="m 521.58047,571.72891 c 16.69922,-1.14844 33.32812,0.28125 49.67969,3.8125 17.55078,4.07031 35.03125,9.04687 51.83984,15.57031 -4.39844,1.42969 -8.80859,2.80859 -13.16016,4.34765 -44.25,15.51954 -90.57812,24.69141 -137.35156,27.75 -15.9375,1.14063 -32.01953,1.83985 -48,1.19141 -16.10937,-0.3125 -32.20703,-2.03125 -48.23828,-3.66016 0.66016,-0.37109 1.32031,-0.74218 1.98047,-1.12109 -5.21875,-0.50781 -10.35156,-1.17969 -15.32031,-2.91797 1.78125,-0.82031 3.37109,-1.27344 5.30859,-1.51172 -0.62891,-0.85156 -1.25781,-1.71875 -1.87891,-2.57812 1.78125,0.16797 3.5586,0.28906 5.35157,0.38672 2.92968,-0.94922 7.3789,-1.67969 9.28906,-4.28907 -0.37891,-1.35937 -0.89063,-2.6875 -1.33203,-4.03906 4.37109,-1.03125 9.25,-1.32031 13.25,-3.25 20.46093,-2.03125 40.63281,-6.26172 60.12109,-12.85156 22.73047,-7.92969 44.08984,-15.52734 68.46094,-16.83984 z m 0,0"
     id="path17" />
  <path
     fill-rule="nonzero"
     fill="#e96f18"
     fill-opacity="1"
     d="m 334.47109,599.42812 c 4.39063,0.52344 8.75782,1.15235 13.14063,1.67188 14.95703,1.94141 30.38672,1.69141 45.38672,0.32031 -4,1.92969 -8.87891,2.21875 -13.25,3.25 0.4414,1.35156 0.95312,2.67969 1.33203,4.03906 -1.91016,2.60938 -6.35938,3.33985 -9.28906,4.28907 -1.79297,-0.0977 -3.57032,-0.21875 -5.35157,-0.38672 0.6211,0.85937 1.25,1.72656 1.87891,2.57812 -1.9375,0.23828 -3.52734,0.69141 -5.30859,1.51172 4.96875,1.73828 10.10156,2.41016 15.32031,2.91797 -0.66016,0.37891 -1.32031,0.75 -1.98047,1.12109 -18.96875,-2.24218 -37.80078,-6.1289 -56.23047,-11.10937 l 1.55859,-0.97266 c -4.58984,-1.66015 -9.33984,-2.3789 -13.72656,-4.58984 5.16797,-0.16797 10,1.01172 15.13672,-0.0781 0.36328,-1.48046 0.71094,-2.96093 1.07031,-4.4414 3.60157,0.58984 6.72266,0.75 10.3125,-0.1211 z m 0,0"
     id="path18" />
  <text
     xml:space="preserve"
     style="font-style:normal;font-variant:normal;font-weight:normal;font-stretch:normal;font-size:144px;line-height:0;font-family:Geneva;-inkscape-font-specification:Geneva;text-align:start;writing-mode:lr-tb;direction:ltr;text-anchor:start;display:inline;fill:#cb500b;fill-opacity:1;stroke:none;stroke-width:0.75;stroke-opacity:1"
     x="79.415314"
     y="769.36658"
     id="text1-9-2-3"><tspan
       sodipodi:role="line"
       id="tspan1-0-3-9"
       style="font-style:normal;font-variant:normal;font-weight:600;font-stretch:normal;font-family:Roboto;-inkscape-font-specification:'Roboto Semi-Bold';fill:#cb500b;fill-opacity:1;stroke:none;stroke-width:0.75;stroke-opacity:1"
       x="79.415314"
       y="769.36658">IdentiBench</tspan></text>
</svg>
